<svg width="47" height="60" viewBox="0 0 47 60" fill="none" xmlns="http://www.w3.org/2000/svg">
<path d="M11.2549 46.5992C6.48544 42.183 6.67185 34.5843 11.6521 30.4073C13.5989 28.7745 15.116 26.6895 16.0706 24.3347L18.6255 18.0327L17.2354 17.4692L18.6255 18.0327C19.3481 16.2504 21.7284 15.9173 22.9124 17.4329L28.7275 24.8761C29.2471 25.5412 29.8202 26.1628 30.441 26.7346L34.2529 30.2456C39.8039 35.3583 39.5928 44.1867 33.8039 49.0283L31.7741 50.726C26.9492 54.7613 19.8773 54.583 15.262 50.3095L11.2549 46.5992Z" fill="#E16A42" stroke="#662116" stroke-width="3"/>
<path d="M25.9698 13.5263C25.8846 13.4178 25.848 13.2788 25.8688 13.1423L26.9383 6.1203C26.9988 5.72268 27.4802 5.55566 27.774 5.83034L34.7739 12.3744C34.9224 12.5133 34.9721 12.7282 34.8996 12.9181L32.1353 20.1546C31.9966 20.5177 31.5149 20.5906 31.2749 20.2849L25.9698 13.5263Z" fill="#E16A42" stroke="#662116" stroke-width="3"/>
<path d="M27.7102 38.1321L27.8739 38.3067C29.1788 39.6982 29.1317 41.8778 27.7678 43.2117V43.2117C27.1394 43.8262 26.3031 44.1823 25.4246 44.2094L25.2252 44.2156C23.3079 44.2748 21.6162 42.9705 21.1858 41.1012L20.9653 40.1439C20.7889 39.3778 20.788 38.5818 20.9627 37.8153L21.2091 36.7342C21.6728 34.6999 22.8289 32.8899 24.4797 31.6138L30.5 26.96" stroke="#662116" stroke-width="3" stroke-linecap="round" stroke-linejoin="round"/>
</svg>
