<svg width="47" height="49" viewBox="0 0 47 49" fill="none" xmlns="http://www.w3.org/2000/svg">
<path d="M24.8805 2.44592L43.8243 19.5856L34.9393 28.4706C34.4588 28.9511 34.3614 29.6947 34.7019 30.2828L43.6473 45.734L11.1279 34.0604L16.9 29.7313C17.291 29.438 17.5146 28.9727 17.4993 28.4842C17.4839 27.9957 17.2316 27.5453 16.823 27.2772L2.67291 17.9912L24.8805 2.44592Z" fill="#FDDD67" stroke="#8B5C00" stroke-width="3" stroke-linecap="round" stroke-linejoin="round"/>
<path d="M22.1462 20.0311L21.8386 19.3564C20.4295 16.2665 23.5288 13.0461 26.6704 14.3358V14.3358C26.9861 14.4654 27.2827 14.6376 27.5518 14.8475L27.8464 15.0772C31.2463 17.7289 31.1485 22.9021 27.6508 25.4235L26.3449 26.3649C24.0651 28.0083 21.0694 28.2742 18.5357 27.0581L10.1462 23.0311" stroke="#8B5C00" stroke-width="3" stroke-linecap="round" stroke-linejoin="round"/>
</svg>
