<svg width="44" height="52" viewBox="0 0 44 52" fill="none" xmlns="http://www.w3.org/2000/svg">
<path d="M2 14.0312L16.5 6.53125L20 10.5312L24.5 9.03125L38 2.03125L42.5 3.03125V12.0312L36 25.5312L29.5 43.0312L13.5 50.0312L10.5 49.0312L13.5 37.5312L2 23.0312V14.0312Z" fill="#57D7C2"/>
<path d="M2 14.0312L1.31087 12.6989L0.5 13.1183V14.0312H2ZM20 10.5312L18.8711 11.519L19.528 12.2697L20.4743 11.9543L20 10.5312ZM24.5 9.03125L24.9743 10.4543L25.086 10.4171L25.1905 10.3629L24.5 9.03125ZM2 23.0312H0.5V23.5539L0.824754 23.9633L2 23.0312ZM16.5 6.53125L17.6289 5.54349L16.8549 4.65892L15.8109 5.19892L16.5 6.53125ZM13.5 37.5312L14.9514 37.9099L15.1404 37.1856L14.6752 36.5992L13.5 37.5312ZM36 25.5312L34.6485 24.8805L34.6182 24.9435L34.5939 25.009L36 25.5312ZM42.5 12.0312L43.8515 12.682L44 12.3736V12.0312H42.5ZM42.5 3.03125H44V1.82799L42.8254 1.56697L42.5 3.03125ZM38 2.03125L38.3254 0.566969L37.7934 0.44874L37.3095 0.699618L38 2.03125ZM29.5 43.0312L30.1012 44.4055L30.6845 44.1503L30.9061 43.5535L29.5 43.0312ZM13.5 50.0312L13.0257 51.4543L13.5728 51.6367L14.1012 51.4055L13.5 50.0312ZM10.5 49.0312L9.04857 48.6526L8.69434 50.0105L10.0257 50.4543L10.5 49.0312ZM20.4743 11.9543L24.9743 10.4543L24.0257 7.60822L19.5257 9.10822L20.4743 11.9543ZM3.5 23.0312V14.0312H0.5V23.0312H3.5ZM2.68913 15.3636L17.1891 7.86358L15.8109 5.19892L1.31087 12.6989L2.68913 15.3636ZM15.3711 7.51901L18.8711 11.519L21.1289 9.54349L17.6289 5.54349L15.3711 7.51901ZM14.6752 36.5992L3.17525 22.0992L0.824754 23.9633L12.3248 38.4633L14.6752 36.5992ZM41.1485 11.3805L34.6485 24.8805L37.3515 26.182L43.8515 12.682L41.1485 11.3805ZM41 3.03125V12.0312H44V3.03125H41ZM37.6746 3.49553L42.1746 4.49553L42.8254 1.56697L38.3254 0.566969L37.6746 3.49553ZM25.1905 10.3629L38.6905 3.36288L37.3095 0.699618L23.8095 7.69962L25.1905 10.3629ZM34.5939 25.009L28.0939 42.509L30.9061 43.5535L37.4061 26.0535L34.5939 25.009ZM28.8988 41.657L12.8988 48.657L14.1012 51.4055L30.1012 44.4055L28.8988 41.657ZM13.9743 48.6082L10.9743 47.6082L10.0257 50.4543L13.0257 51.4543L13.9743 48.6082ZM11.9514 49.4099L14.9514 37.9099L12.0486 37.1526L9.04857 48.6526L11.9514 49.4099Z" fill="#046B5A"/>
<path d="M19.5 11.0312L15.5 18.5312V22.5312L22 24.0312L24.5 18.5312" stroke="#046B5A" stroke-width="3" stroke-linecap="round" stroke-linejoin="round"/>
<path d="M35 29.5312L23.1951 35.5312L13 39.5312" stroke="#046B5A" stroke-width="3" stroke-linejoin="round"/>
</svg>
