<svg width="42" height="58" viewBox="0 0 42 58" fill="none" xmlns="http://www.w3.org/2000/svg">
<path d="M4.46305 39.0692C2.93397 33.5263 5.73385 27.7058 11.0189 25.4408L18.2631 22.3362C20.6914 21.2955 22.7892 19.6111 24.33 17.465L30.1893 9.30385C31.8962 6.92636 35.5937 7.56938 36.3978 10.3835L39.7648 22.1681C40.2268 23.7851 40.3285 25.4837 40.0628 27.1443L37.8521 40.9615C37.1348 45.4448 33.8467 49.0864 29.4596 50.2563L20.0674 52.7608C13.9677 54.3874 7.69716 50.7929 6.0184 44.7073L4.46305 39.0692Z" fill="#ABE76D" stroke="#3F5E20" stroke-width="3"/>
<path d="M24.0005 41.53L24.372 41.7158C26.4195 42.7395 28.9099 42.0143 30.0877 40.0513V40.0513C30.6731 39.0756 30.856 37.9104 30.5975 36.8023L30.5733 36.6988C30.0643 34.5166 28.0696 33.0093 25.8314 33.1155L24.2862 33.1888C23.3592 33.2327 22.4523 33.4747 21.6266 33.8984L20.6439 34.4026C18.1854 35.6641 16.4427 37.9851 15.917 40.6979L13.8828 51.1953" stroke="#3F5D20" stroke-width="3" stroke-linecap="round" stroke-linejoin="round"/>
</svg>
