<svg width="40" height="71" viewBox="0 0 40 71" fill="none" xmlns="http://www.w3.org/2000/svg">
<path d="M4.10036 50.5232C2.72896 45.5519 4.95017 40.2893 9.46883 37.804C14.3972 35.0935 17.2497 29.7191 16.7327 24.1183L16.4414 20.9623C16.1018 17.2842 20.9524 15.6565 22.9003 18.7948L36.3716 40.4986C37.7212 42.6729 38.3069 45.2352 38.0362 47.7798L37.4535 53.2574C36.9499 57.9916 33.5812 61.9259 28.9812 63.1526L20.0674 65.5296C13.9677 67.1562 7.69716 63.5616 6.0184 57.4761L4.10036 50.5232Z" fill="#7AE7F2" stroke="#0F7199" stroke-width="3"/>
<path d="M21.7116 53.2452L22.0893 53.3225C24.1714 53.7486 26.2305 52.4998 26.815 50.4566V50.4566C27.1056 49.4409 26.9895 48.3521 26.4915 47.4204L26.4449 47.3334C25.4642 45.4989 23.3132 44.6265 21.3316 45.2595L19.9635 45.6965C19.1428 45.9587 18.3877 46.3936 17.749 46.9719L17.2213 47.4498C15.1731 49.3047 14.0904 51.9976 14.2848 54.754L14.9609 64.3438" stroke="#0F7199" stroke-width="3" stroke-linecap="round" stroke-linejoin="round"/>
</svg>
